<?xml version="1.0" encoding="utf-8" ?>
<svg baseProfile="full" height="200mm" version="1.1" viewBox="0,0,200,200" width="200mm" xmlns="http://www.w3.org/2000/svg" xmlns:ev="http://www.w3.org/2001/xml-events" xmlns:xlink="http://www.w3.org/1999/xlink"><defs /><rect fill="#1a1a1a" height="200" width="200" x="0" y="0" /><text alignment-baseline="middle" fill="#e1ed5e" style="dominant-baseline: central; font-size:9.0px; font-family:Arial;" text-anchor="middle" x="100.0" y="100.0">2025</text><line stroke="#e1ed5e" stroke-width="0.3" x1="100.0" x2="100.0" y1="15.0" y2="10.0" /><path d="M 100.0 14.0 a86.0,86.0 0 0,1 42.46469731375804,11.215312516191453" fill="none" id="id37" stroke="none" /><text fill="#e1ed5e" style="font-size:6.75px; font-family:Arial;" text-anchor="middle"><textPath startOffset="22.20632615414155" xlink:href="#id37">January</textPath></text><path d="M 100.36148047927253 79.00311137660856 l 1.0584394166486506 -61.480317251720784 a82.48942757394113,82.48942757394113 0 0,0 1.4194991430116362,0.03666147493358869 l -2.1165651948551543 61.45298898464483" fill="red" stroke="none" /><path d="M 101.80526077348638 79.07773832637324 l 5.127084484820399 -59.42089075975472 a80.64167380277979,80.64167380277979 0 0,0 1.38194819576216,0.13123263293307702 l -6.149157807672803 59.323832582306466" fill="red" stroke="none" /><path d="M 102.16513564639614 79.11191278185805 l 3.667438283331357 -35.381511018438246 a56.571075686713655,56.571075686713655 0 0,0 0.9677244764256656,0.10873512053507964 l -4.275929463266748 35.313139944432564" fill="red" stroke="none" /><path d="M 102.52436894288641 79.15227682838746 l 7.273420119791753 -60.06818044389115 a81.50693300836573,81.50693300836573 0 0,0 1.3913826194284187,0.1806413969503675 l -8.306317467728018 59.934080723776646" fill="red" stroke="none" /><path d="M 103.2404852339499 79.25152402106235 l 4.540222707734305 -29.070554250181402 a50.422962914169034,50.422962914169034 0 0,0 0.856399914829844,0.14131332386455053 l -5.039951828703025 28.98809466337723" fill="red" stroke="none" /><path d="M 104.307194497241 79.44645832069477 l 12.382155684735363 -59.0865244438982 a81.36998550820104,81.36998550820104 0 0,0 1.368400115130628,0.29907926387465456 l -13.397398524019518 58.864631681927676" fill="red" stroke="none" /><path d="M 105.01212808612495 79.60689891045804 l 15.036384258374856 -61.17930326862588 a84.0,84.0 0 0,0 1.4011644452598997,0.3571880153245286 l -16.08725759231978 60.91141225713248" fill="red" stroke="none" /><path d="M 106.40334571778207 80.00007090966166 l 5.15239238384411 -16.092756328354884 a37.89745405441012,37.89745405441012 0 0,0 0.6195641414360826,0.20426055640359 l -5.42863934752261 16.001682047692057" fill="red" stroke="none" /><line stroke="#e1ed5e" stroke-width="0.3" x1="143.23703022742887" x2="145.7803849466894" y1="26.81831364943548" y2="22.513508569990506" /><path d="M 143.74570117128098 25.957352633546492 a86.0,86.0 0 0,1 28.547481713284135,27.462654790039103" fill="none" id="id38" stroke="none" /><text fill="#e1ed5e" style="font-size:6.75px; font-family:Arial;" text-anchor="middle"><textPath startOffset="19.985693538727396" xlink:href="#id38">February</textPath></text><path d="M 111.90073688211348 82.69761687909136 l 18.69009904216645 -27.173380724123813 a53.98048547526514,53.98048547526514 0 0,0 0.7610448009230015,0.5331605182157719 l -19.155074982673103 26.847635363144104" fill="red" stroke="none" /><path d="M 114.16331599549186 84.49514656593476 l 40.36279164172085 -44.185921488568894 a80.84605757196496,80.84605757196496 0 0,0 1.0193999367297262,0.947421142971722 l -41.11739946224542 43.484595759522534" fill="red" stroke="none" /><path d="M 114.94478906791727 85.2469230424477 l 16.47953158533266 -16.268131761374452 a44.15657730057309,44.15657730057309 0 0,0 0.5293232618623975,0.5455141501775115 l -16.757119110898167 15.982053415646824" fill="red" stroke="none" /><path d="M 115.68641384162765 86.03803664274999 l 45.18226565087489 -40.21525530207448 a81.48722086819049,81.48722086819049 0 0,0 0.9235534086218237,1.0557811984042456 l -45.867810923074565 39.43155854746729" fill="red" stroke="none" /><path d="M 117.2510076193507 88.02491185347247 l 49.37690422739126 -34.27584020439459 a81.10750279955208,81.10750279955208 0 0,0 0.7862620581282628,1.1537425506611068 l -49.95959075118825 33.42081963046308" fill="red" stroke="none" /><line stroke="#e1ed5e" stroke-width="0.3" x1="172.23445277983987" x2="176.4835382374775" y1="55.19839476539836" y2="52.563006222186495" /><path d="M 173.08426987136738 54.67131705675599 a86.0,86.0 0 0,1 12.851231095245387,41.99856678651699" fill="none" id="id39" stroke="none" /><text fill="#e1ed5e" style="font-size:6.75px; font-family:Arial;" text-anchor="middle"><textPath startOffset="22.20632615414155" xlink:href="#id39">March</textPath></text><path d="M 119.47837535516314 92.15188598940014 l 23.853664200503122 -9.610980012585593 a46.71708056122786,46.71708056122786 0 0,0 0.2941094943281216,0.7484765830089962 l -24.015567244712944 9.198954424680812" fill="red" stroke="none" /><path d="M 120.45610955862082 95.25157060432595 l 54.6538306895238 -12.686667300476886 a77.10697582504446,77.10697582504446 0 0,0 0.28898818089186634,1.2954773500504224 l -54.864113257417706 11.7440117808765" fill="red" stroke="none" /><path d="M 120.53481517161879 95.60439243477599 l 51.603513035351504 -11.046059601443494 a73.7725116922469,73.7725116922469 0 0,0 0.25511484481952823,1.2440305855330458 l -51.78600717608603 10.156153359747037" fill="red" stroke="none" /><path d="M 120.73433829027371 96.67025291283417 l 54.530585824934 -8.757118590912281 a76.22926684671629,76.22926684671629 0 0,0 0.19690421304177724,1.297352744415106 l -54.67324593141508 7.817166734105093" fill="red" stroke="none" /><path d="M 120.83666639777658 97.38593545837742 l 41.75911710817163 -5.238891156484823 a63.08645675515447,63.08645675515447 0 0,0 0.1259014825172799,1.0786470154684098 l -41.8431089436925 4.51930040269156" fill="red" stroke="none" /><line stroke="#e1ed5e" stroke-width="0.3" x1="184.98032266829074" x2="189.97916517819016" y1="98.17113171792111" y2="98.06355123074" /><path d="M 185.9800911702706 98.14961562048488 a86.0,86.0 0 0,1 -9.607161424134198,41.387399972396054" fill="none" id="id40" stroke="none" /><text fill="#e1ed5e" style="font-size:6.75px; font-family:Arial;" text-anchor="middle"><textPath startOffset="21.466115282336823" xlink:href="#id40">April</textPath></text><path d="M 120.92983693683757 101.71520430193887 l 45.622798168457976 3.7387973886838903 a66.77573941110599,66.77573941110599 0 0,0 -0.1037421646278164,1.1447861419728034 l -45.55168140755308 -4.523564919205264" fill="red" stroke="none" /><path d="M 120.89721153311464 102.0752229133903 l 42.517449240906096 4.222246817180327 a63.726582570318165,63.726582570318165 0 0,0 -0.11779615564680632,1.0906461033088044 l -42.43847078375824 -4.953489242373923" fill="red" stroke="none" /><path d="M 120.8583938346157 102.4346265915055 l 43.78016247597233 5.110093739219001 a65.07738291285159,65.07738291285159 0 0,0 -0.13944685777348934,1.1115286594419391 l -43.685714108952 -5.862940152948335" fill="red" stroke="none" /><path d="M 120.81339534386255 102.79330883721812 l 41.09655021283946 5.515455551203628 a62.465005599104146,62.465005599104146 0 0,0 -0.1521943471300702,1.0644469093527857 l -40.99552181469279 -6.222047932536823" fill="red" stroke="none" /><path d="M 120.5718875245553 104.21870165774334 l 41.1634241084022 8.441432771651435 a63.02005796719583,63.02005796719583 0 0,0 -0.2270701555109139,1.0607961709997944 l -41.01201991416684 -9.148742762067398" fill="red" stroke="none" /><path d="M 120.49622156327973 104.57218783832717 l 39.18327792698139 8.740796748826234 a61.14636716948818,61.14636716948818 0 0,0 -0.23800330703983752,1.0253120176023574 l -39.027014054011 -9.413977423777157" fill="red" stroke="none" /><path d="M 120.41448212921028 104.9243191809786 l 40.84543731066238 9.852611941429375 a63.01694552401028,63.01694552401028 0 0,0 -0.2634368964139338,1.052299449594347 l -40.66978909995339 -10.554239230421118" fill="red" stroke="none" /><line stroke="#e1ed5e" stroke-width="0.3" x1="174.80103733775053" x2="179.2010983576182" y1="140.37084112569926" y2="142.7455964860345" /><path d="M 175.68104954172406 140.8457921977663 a86.0,86.0 0 0,1 -30.038265399797805,32.042727171017184" fill="none" id="id41" stroke="none" /><text fill="#e1ed5e" style="font-size:6.75px; font-family:Arial;" text-anchor="middle"><textPath startOffset="22.206326154141568" xlink:href="#id41">May</textPath></text><line stroke="#e1ed5e" stroke-width="0.3" x1="143.8653032363475" x2="146.44561519142675" y1="172.8068346515853" y2="177.08958963109032" /><path d="M 144.38136562736335 173.6633856474863 a86.0,86.0 0 0,1 -40.68145358897372,12.25698825130547" fill="none" id="id42" stroke="none" /><text fill="#e1ed5e" style="font-size:6.75px; font-family:Arial;" text-anchor="middle"><textPath startOffset="21.466115282336833" xlink:href="#id42">June</textPath></text><line stroke="#e1ed5e" stroke-width="0.3" x1="102.19456741930631" x2="102.32365962044197" y1="184.97166512339345" y2="189.96999836594603" /><path d="M 102.22038585953345 185.97133177190398 a86.0,86.0 0 0,1 -42.740103519485714,-10.115201625700543" fill="none" id="id43" stroke="none" /><text fill="#e1ed5e" style="font-size:6.75px; font-family:Arial;" text-anchor="middle"><textPath startOffset="22.20632615414155" xlink:href="#id43">July</textPath></text><line stroke="#e1ed5e" stroke-width="0.3" x1="58.666819895761336" x2="56.23545636021788" y1="174.27360380694188" y2="178.64263932499728" /><path d="M 58.180547188652646 175.14741091055294 a86.0,86.0 0 0,1 -31.652253787137756,-30.449443065178592" fill="none" id="id44" stroke="none" /><text fill="#e1ed5e" style="font-size:6.75px; font-family:Arial;" text-anchor="middle"><textPath startOffset="22.20632615414155" xlink:href="#id44">August</textPath></text><line stroke="#e1ed5e" stroke-width="0.3" x1="26.63291911575756" x2="22.317208475507996" y1="142.92168965132927" y2="145.44649492493687" /><path d="M 25.769776987707644 143.4266507060508 a86.0,86.0 0 0,1 -11.730757126820373,-40.83630448921669" fill="none" id="id45" stroke="none" /><text fill="#e1ed5e" style="font-size:6.75px; font-family:Arial;" text-anchor="middle"><textPath startOffset="21.46611528233685" xlink:href="#id45">September</textPath></text><line stroke="#e1ed5e" stroke-width="0.3" x1="15.007084014347285" x2="10.007500721073583" y1="101.09737516637583" y2="101.16192664675087" /><path d="M 14.007167355692545 101.11028546245083 a86.0,86.0 0 0,1 10.666146001902534,-42.60595125391555" fill="none" id="id46" stroke="none" /><text fill="#e1ed5e" style="font-size:6.75px; font-family:Arial;" text-anchor="middle"><textPath startOffset="22.20632615414155" xlink:href="#id46">October</textPath></text><line stroke="#e1ed5e" stroke-width="0.3" x1="26.266209847984243" x2="21.928928074336255" y1="57.711370442889674" y2="55.22380399835377" /><path d="M 25.398753493254645 57.213857153982495 a86.0,86.0 0 0,1 29.58750427330803,-30.492523968695096" fill="none" id="id47" stroke="none" /><text fill="#e1ed5e" style="font-size:6.75px; font-family:Arial;" text-anchor="middle"><textPath startOffset="21.46611528233685" xlink:href="#id47">November</textPath></text><line stroke="#e1ed5e" stroke-width="0.3" x1="56.762969772571076" x2="54.21961505331055" y1="26.818313649435495" y2="22.513508569990535" /><path d="M 56.25429882871897 25.957352633546506 a86.0,86.0 0 0,1 42.265352541879196,-11.944610805530505" fill="none" id="id48" stroke="none" /><text fill="#e1ed5e" style="font-size:6.75px; font-family:Arial;" text-anchor="middle"><textPath startOffset="22.20632615414155" xlink:href="#id48">December</textPath></text></svg>