<?xml version="1.0" encoding="utf-8" ?>
<svg baseProfile="full" height="200mm" version="1.1" viewBox="0,0,200,200" width="200mm" xmlns="http://www.w3.org/2000/svg" xmlns:ev="http://www.w3.org/2001/xml-events" xmlns:xlink="http://www.w3.org/1999/xlink"><defs /><rect fill="#1a1a1a" height="200" width="200" x="0" y="0" /><text alignment-baseline="middle" fill="#e1ed5e" style="dominant-baseline: central; font-size:9.0px; font-family:Arial;" text-anchor="middle" x="100.0" y="100.0">2025</text><line stroke="#e1ed5e" stroke-width="0.3" x1="100.0" x2="100.0" y1="15.0" y2="10.0" /><path d="M 100.0 14.0 a86.0,86.0 0 0,1 42.46469731375804,11.215312516191453" fill="none" id="id37" stroke="none" /><text fill="#e1ed5e" style="font-size:6.75px; font-family:Arial;" text-anchor="middle"><textPath startOffset="22.20632615414155" xlink:href="#id37">January</textPath></text><path d="M 100.36148047927253 79.00311137660856 l 0.2222875788940128 -12.911755417039007 a33.91366871640924,33.91366871640924 0 0,0 0.5835950750921598,0.015072539016447749 l -0.4445092891810404 12.9060160858802" fill="#ff890c" stroke="none" /><path d="M 101.80526077348638 79.07773832637324 l 1.07676186184032 -12.479246081494024 a33.52561371229361,33.52561371229361 0 0,0 0.5745250463777729,0.054558075876767094 l -1.2914120353083371 12.458862461102079" fill="#ff830c" stroke="none" /><path d="M 102.16513564639614 79.11191278185805 l 0.7702150580580244 -7.430628808971521 a28.47044012976323,28.47044012976323 0 0,0 0.48702524096875477,0.054722960481439833 l -0.8980070025365045 7.4162698950194805" fill="#ff3b05" stroke="none" /><path d="M 102.52436894288641 79.15227682838746 l 1.5275233738240528 -12.615186272747803 a33.707330654142254,33.707330654142254 0 0,0 0.5754086467059993,0.07470455668117512 l -1.7444467490378983 12.58702339290249" fill="#ff860c" stroke="none" /><path d="M 103.2404852339499 79.25152402106235 l 0.9535124046470518 -6.10523665288341 a27.179247566939427,27.179247566939427 0 0,0 0.46162113363087287,0.07617144237159519 l -1.0584627444168 6.087918947572191" fill="#ff2803" stroke="none" /><path d="M 104.307194497241 79.44645832069477 l 2.6004316972279016 -12.40902432137591 a33.678569699317286,33.678569699317286 0 0,0 0.56637294901983,0.1237871897249862 l -2.8136473704012595 12.362423633555053" fill="#ff850c" stroke="none" /><path d="M 105.01212808612495 79.60689891045804 l 3.1578580687190185 -12.848538128960985 a34.230910763569455,34.230910763569455 0 0,0 0.570989703461642,0.14555798902845735 l -3.378556660865686 12.792277143763659" fill="#ff8d0d" stroke="none" /><path d="M 106.40334571778207 80.00007090966166 l 1.082076886500577 -3.379711474925892 a24.548709630562147,24.548709630562147 0 0,0 0.401333033712142,0.1323131913011786 l -1.1400927424551366 3.360584559365477" fill="#ff0000" stroke="none" /><line stroke="#e1ed5e" stroke-width="0.3" x1="143.23703022742887" x2="145.7803849466894" y1="26.81831364943548" y2="22.513508569990506" /><path d="M 143.74570117128098 25.957352633546492 a86.0,86.0 0 0,1 28.547481713284135,27.462654790039103" fill="none" id="id38" stroke="none" /><text fill="#e1ed5e" style="font-size:6.75px; font-family:Arial;" text-anchor="middle"><textPath startOffset="19.985693538727396" xlink:href="#id38">February</textPath></text><path d="M 111.90073688211348 82.69761687909136 l 3.9251909934790348 -5.706802785799689 a27.92637873432431,27.92637873432431 0 0,0 0.39372052987746486,0.27582639220065536 l -4.022842662940151 5.638391550835098" fill="#ff3304" stroke="none" /><path d="M 114.16331599549186 84.49514656593476 l 8.47676975206596 -9.279682289227635 a33.56853725850966,33.56853725850966 0 0,0 0.4232706675520145,0.3933839557857994 l -8.635248303412823 9.132393747367196" fill="#ff840c" stroke="none" /><path d="M 114.94478906791727 85.2469230424477 l 3.46093987033271 -3.416542851186276 a25.863215997675884,25.863215997675884 0 0,0 0.3100331296276413,0.3195163927627712 l -3.5192372636634603 3.3564622628733902" fill="#ff1402" stroke="none" /><path d="M 115.68641384162765 86.03803664274999 l 9.48892896702564 -8.445784987871605 a33.70319081973563,33.70319081973563 0 0,0 0.38198255421359295,0.43667209182731836 l -9.63290338481708 8.281197339841338" fill="#ff860c" stroke="none" /><path d="M 117.2510076193507 88.02491185347247 l 10.369863708157608 -7.198421953820813 a33.62344453590278,33.62344453590278 0 0,0 0.32594812797400546,0.47828865791536807 l -10.492236301800347 7.018855272635038" fill="#ff850c" stroke="none" /><line stroke="#e1ed5e" stroke-width="0.3" x1="172.23445277983987" x2="176.4835382374775" y1="55.19839476539836" y2="52.563006222186495" /><path d="M 173.08426987136738 54.67131705675599 a86.0,86.0 0 0,1 12.851231095245387,41.99856678651699" fill="none" id="id39" stroke="none" /><text fill="#e1ed5e" style="font-size:6.75px; font-family:Arial;" text-anchor="middle"><textPath startOffset="22.20632615414155" xlink:href="#id39">March</textPath></text><path d="M 119.47837535516314 92.15188598940014 l 5.0096143241429845 -2.0184447443963425 a26.400958698494165,26.400958698494165 0 0,0 0.16620842996417884,0.42298232503874567 l -5.0436163039888635 1.9319134144618122" fill="#ff1c02" stroke="none" /><path d="M 120.45610955862082 95.25157060432595 l 11.478094551433703 -2.6643835387254655 a32.78327603737956,32.78327603737956 0 0,0 0.1228679922192081,0.5507931171265268 l -11.52225693065495 2.4664122520489746" fill="#ff790b" stroke="none" /><path d="M 120.53481517161879 95.60439243477599 l 10.837483746943319 -2.319832204377277 a32.08299036459594,32.08299036459594 0 0,0 0.11094711187758703,0.5410175195799105 l -10.875810154735902 2.132939028633955" fill="#ff6f0a" stroke="none" /><path d="M 120.73433829027371 96.67025291283417 l 11.452211348172499 -1.8391215019421512 a32.5989444632741,32.5989444632741 0 0,0 0.08420479129677072,0.5548043660121611 l -11.48217203290857 1.6417180235379079" fill="#ff760a" stroke="none" /><path d="M 120.83666639777658 97.38593545837742 l 8.770018286089927 -1.1002428792302201 a29.838764344163074,29.838764344163074 0 0,0 0.059549146689189154,0.5101807227819463 l -8.787657785782704 0.9491184181234211" fill="#ff4f07" stroke="none" /><line stroke="#e1ed5e" stroke-width="0.3" x1="184.98032266829074" x2="189.97916517819016" y1="98.17113171792111" y2="98.06355123074" /><path d="M 185.9800911702706 98.14961562048488 a86.0,86.0 0 0,1 -9.607161424134198,41.387399972396054" fill="none" id="id40" stroke="none" /><text fill="#e1ed5e" style="font-size:6.75px; font-family:Arial;" text-anchor="middle"><textPath startOffset="21.466115282336823" xlink:href="#id40">April</textPath></text><path d="M 120.92983693683757 101.71520430193887 l 9.58144716430488 0.7852015017895723 a30.613567036265916,30.613567036265916 0 0,0 -0.0475609516169997,0.5248311379034146 l -9.566511616410805 -0.9500140282415575" fill="#ff5a08" stroke="none" /><path d="M 120.89721153311464 102.0752229133903 l 8.929278996841626 0.8867328707917154 a29.973200019367646,29.973200019367646 0 0,0 -0.05540431625716567,0.5129751586592177 l -8.912692379083408 -1.0403043513357246" fill="#ff5107" stroke="none" /><path d="M 120.8583938346157 102.4346265915055 l 9.194467030700986 1.0731935596362157 a30.256887619232074,30.256887619232074 0 0,0 -0.06483401322634143,0.5167908761685751 l -9.174631508227797 -1.2313021900921857" fill="#ff5507" stroke="none" /><path d="M 120.81339534386255 102.79330883721812 l 8.63086965962905 1.1583254002922059 a29.708250617343726,29.708250617343726 0 0,0 -0.07238337311776337,0.5062491429979644 l -8.609652235494686 -1.3067200152705796" fill="#ff4d07" stroke="none" /><path d="M 120.5718875245553 104.21870165774334 l 8.644914144464016 1.7728229161649351 a29.824819638793393,29.824819638793393 0 0,0 -0.10746303084949572,0.5020315038437481 l -8.613117074890077 -1.9213682394248521" fill="#ff4e07" stroke="none" /><path d="M 120.49622156327973 104.57218783832717 l 8.229054820254468 1.835693679146316 a29.43131748414274,29.43131748414274 0 0,0 -0.11455710643200252,0.49350901627103994 l -8.196237147891912 -1.977071352765921" fill="#ff4906" stroke="none" /><path d="M 120.41448212921028 104.9243191809786 l 8.578132319941973 2.0691909426211246 a29.82416598072919,29.82416598072919 0 0,0 -0.12467734922353205,0.4980240344110946 l -8.541243656423381 -2.216542816429615" fill="#ff4e07" stroke="none" /><path d="M 120.32669344350535 105.2749913415812 l 6.18865290140714 1.6060207018768526 a27.39364741199826,27.39364741199826 0 0,0 -0.12237384570165012,0.4553986040438462 l -6.160090979363713 -1.712310239096247" fill="#ff2b04" stroke="none" /><path d="M 120.23288151984713 105.62410040840565 l 7.221270774234333 2.007284620865314 a28.49506125018157,28.49506125018157 0 0,0 -0.13542937738808145,0.47144742935307843 l -7.185648759960153 -2.1312895257229747" fill="#ff3b05" stroke="none" /><path d="M 120.02730092923936 106.31721596034902 l 6.665400376706365 2.1024687146120113 a27.989129908487868,27.989129908487868 0 0,0 -0.1488858427662389,0.45822350720012 l -6.628222282923879 -2.2168911217899265" fill="#ff3404" stroke="none" /><path d="M 119.9155931802556 106.66101706037122 l 6.2141262809605 2.078391579810721 a27.55248632159977,27.55248632159977 0 0,0 -0.1543059534157785,0.44848532964197496 l -6.177429496601491 -2.1850496125419965" fill="#ff2d04" stroke="none" /><path d="M 119.79798401119884 107.00284435728193 l 7.73180082639178 2.7348541022206203 a29.20122984554302,29.20122984554302 0 0,0 -0.17169730641593586,0.47243724619778826 l -7.683579258970617 -2.86753914542454" fill="#ff4506" stroke="none" /><path d="M 119.67450827220406 107.3425965602758 l 6.150741940808812 2.2954787989050693 a27.56512371084104,27.56512371084104 0 0,0 -0.16972991331068613,0.4431112448623263 l -6.110317747904619 -2.4010136106005397" fill="#ff2d04" stroke="none" /><path d="M 119.54520255179757 107.68017299344265 l 6.1115344983107605 2.4014917255540293 a27.566431026969447,27.566431026969447 0 0,0 -0.17734060790464173,0.4401448452219207 l -6.069291276148726 -2.5063359386187636" fill="#ff2d04" stroke="none" /><path d="M 119.41010516605496 108.01547362559984 l 6.047138373060285 2.497187816601043 a27.54246356461531,27.54246356461531 0 0,0 -0.18472995088679275,0.4366470355510458 l -6.003257440981184 -2.6009093778182524" fill="#ff2d04" stroke="none" /><path d="M 118.81262510543309 109.33194174019688 l 4.938328729490601 2.449641968586172 a26.512516341451605,26.512516341451605 0 0,0 -0.20631955656349052,0.4070880586411696 l -4.895430503140841 -2.5342842389300357" fill="#ff1e03" stroke="none" /><line stroke="#e1ed5e" stroke-width="0.3" x1="174.80103733775053" x2="179.2010983576182" y1="140.37084112569926" y2="142.7455964860345" /><path d="M 175.68104954172406 140.8457921977663 a86.0,86.0 0 0,1 -30.038265399797805,32.042727171017184" fill="none" id="id41" stroke="none" /><text fill="#e1ed5e" style="font-size:6.75px; font-family:Arial;" text-anchor="middle"><textPath startOffset="22.206326154141568" xlink:href="#id41">May</textPath></text><path d="M 117.75023020441432 111.22182372390056 l 53.25069061324299 33.665471171701654 a84.0,84.0 0 0,0 -0.7831805464917987,1.2155136003141882 l -52.663305203374144 -34.5771063719373" fill="#4dd2ff" stroke="none" /><path d="M 116.498646956653 112.99209946851258 l 9.799662888762418 7.716887047961963 a33.473321067157315,33.473321067157315 0 0,0 -0.36036753892005574,0.44961391384494565 l -9.665377437787509 -7.884428795385159" fill="#ff820c" stroke="none" /><line stroke="#e1ed5e" stroke-width="0.3" x1="143.8653032363475" x2="146.44561519142675" y1="172.8068346515853" y2="177.08958963109032" /><path d="M 144.38136562736335 173.6633856474863 a86.0,86.0 0 0,1 -40.68145358897372,12.25698825130547" fill="none" id="id42" stroke="none" /><text fill="#e1ed5e" style="font-size:6.75px; font-family:Arial;" text-anchor="middle"><textPath startOffset="21.466115282336833" xlink:href="#id42">June</textPath></text><path d="M 109.89434966115114 118.52300852407294 l 16.096736947615803 30.134370211428156 a55.16409238367307,55.16409238367307 0 0,0 -0.8414076497313971,0.4401847149580676 l -15.575638395357911 -30.40698434533094" fill="#6eff28" stroke="none" /><line stroke="#e1ed5e" stroke-width="0.3" x1="102.19456741930631" x2="102.32365962044197" y1="184.97166512339345" y2="189.96999836594603" /><path d="M 102.22038585953345 185.97133177190398 a86.0,86.0 0 0,1 -42.740103519485714,-10.115201625700543" fill="none" id="id43" stroke="none" /><text fill="#e1ed5e" style="font-size:6.75px; font-family:Arial;" text-anchor="middle"><textPath startOffset="22.20632615414155" xlink:href="#id43">July</textPath></text><line stroke="#e1ed5e" stroke-width="0.3" x1="58.666819895761336" x2="56.23545636021788" y1="174.27360380694188" y2="178.64263932499728" /><path d="M 58.180547188652646 175.14741091055294 a86.0,86.0 0 0,1 -31.652253787137756,-30.449443065178592" fill="none" id="id44" stroke="none" /><text fill="#e1ed5e" style="font-size:6.75px; font-family:Arial;" text-anchor="middle"><textPath startOffset="22.20632615414155" xlink:href="#id44">August</textPath></text><line stroke="#e1ed5e" stroke-width="0.3" x1="26.63291911575756" x2="22.317208475507996" y1="142.92168965132927" y2="145.44649492493687" /><path d="M 25.769776987707644 143.4266507060508 a86.0,86.0 0 0,1 -11.730757126820373,-40.83630448921669" fill="none" id="id45" stroke="none" /><text fill="#e1ed5e" style="font-size:6.75px; font-family:Arial;" text-anchor="middle"><textPath startOffset="21.46611528233685" xlink:href="#id45">September</textPath></text><line stroke="#e1ed5e" stroke-width="0.3" x1="15.007084014347285" x2="10.007500721073583" y1="101.09737516637583" y2="101.16192664675087" /><path d="M 14.007167355692545 101.11028546245083 a86.0,86.0 0 0,1 10.666146001902534,-42.60595125391555" fill="none" id="id46" stroke="none" /><text fill="#e1ed5e" style="font-size:6.75px; font-family:Arial;" text-anchor="middle"><textPath startOffset="22.20632615414155" xlink:href="#id46">October</textPath></text><line stroke="#e1ed5e" stroke-width="0.3" x1="26.266209847984243" x2="21.928928074336255" y1="57.711370442889674" y2="55.22380399835377" /><path d="M 25.398753493254645 57.213857153982495 a86.0,86.0 0 0,1 29.58750427330803,-30.492523968695096" fill="none" id="id47" stroke="none" /><text fill="#e1ed5e" style="font-size:6.75px; font-family:Arial;" text-anchor="middle"><textPath startOffset="21.46611528233685" xlink:href="#id47">November</textPath></text><line stroke="#e1ed5e" stroke-width="0.3" x1="56.762969772571076" x2="54.21961505331055" y1="26.818313649435495" y2="22.513508569990535" /><path d="M 56.25429882871897 25.957352633546506 a86.0,86.0 0 0,1 42.265352541879196,-11.944610805530505" fill="none" id="id48" stroke="none" /><text fill="#e1ed5e" style="font-size:6.75px; font-family:Arial;" text-anchor="middle"><textPath startOffset="22.20632615414155" xlink:href="#id48">December</textPath></text></svg>