<?xml version="1.0" encoding="utf-8" ?>
<svg baseProfile="full" height="200mm" version="1.1" viewBox="0,0,200,200" width="200mm" xmlns="http://www.w3.org/2000/svg" xmlns:ev="http://www.w3.org/2001/xml-events" xmlns:xlink="http://www.w3.org/1999/xlink"><defs /><rect fill="#1a1a1a" height="200" width="200" x="0" y="0" /><text alignment-baseline="middle" fill="#e1ed5e" style="dominant-baseline: central; font-size:9.0px; font-family:Arial;" text-anchor="middle" x="100.0" y="100.0">2025</text><line stroke="#e1ed5e" stroke-width="0.3" x1="100.0" x2="100.0" y1="15.0" y2="10.0" /><path d="M 100.0 14.0 a86.0,86.0 0 0,1 42.46469731375804,11.215312516191453" fill="none" id="id37" stroke="none" /><text fill="#e1ed5e" style="font-size:6.75px; font-family:Arial;" text-anchor="middle"><textPath startOffset="22.20632615414155" xlink:href="#id37">January</textPath></text><path d="M 100.36148047927253 79.00311137660856 l 0.08241967415201501 -4.787414031398822 a25.78812344355507,25.78812344355507 0 0,0 0.4437686162289337,0.011461234112247034 l -0.1648149255758165 4.785286005144216" fill="#ff3404" stroke="none" /><path d="M 101.80526077348638 79.07773832637324 l 0.39924120921983974 -4.627048442459107 a25.644240608754306,25.644240608754306 0 0,0 0.43946275380679306,0.04173228376790158 l -0.478829090116877 4.619490614176027" fill="#ff3204" stroke="none" /><path d="M 102.16513564639614 79.11191278185805 l 0.2855799430088061 -2.75512472728859 a23.769885948331797,23.769885948331797 0 0,0 0.4066159279246234,0.04568803725795126 l -0.3329625744431548 2.749800736560038" fill="#ff1702" stroke="none" /><path d="M 102.52436894288641 79.15227682838746 l 0.5663743307501384 -4.677452276641139 a25.711617522973192,25.711617522973192 0 0,0 0.43891600896311744,0.05698389493721611 l -0.646805068221102 4.667010058539786" fill="#ff3304" stroke="none" /><path d="M 103.2404852339499 79.25152402106235 l 0.3535428388843322 -2.263696505469215 a23.291138234109834,23.291138234109834 0 0,0 0.39558422685186434,0.06527478692700737 l -0.3924562718750717 2.2572754556025827" fill="#ff1001" stroke="none" /><path d="M 104.307194497241 79.44645832069477 l 0.96418672697086 -4.6010116543663475 a25.700953550938546,25.700953550938546 0 0,0 0.43221327346219857,0.09446508096178385 l -1.0432427245865865 4.583733075308693" fill="#ff3304" stroke="none" /><path d="M 105.01212808612495 79.60689891045804 l 1.170868990238227 -4.763974357845813 a25.905750286603865,25.905750286603865 0 0,0 0.4321216217782238,0.1101574229805342 l -1.2526995007014756 4.7431139386964105" fill="#ff3505" stroke="none" /><path d="M 106.40334571778207 80.00007090966166 l 0.4012119113291876 -1.253127682064653 a22.315788731274573,22.315788731274573 0 0,0 0.3648282669836024,0.12027814365288919 l -0.42272300055520745 1.2460358141525276" fill="#ff0200" stroke="none" /><line stroke="#e1ed5e" stroke-width="0.3" x1="143.23703022742887" x2="145.7803849466894" y1="26.81831364943548" y2="22.513508569990506" /><path d="M 143.74570117128098 25.957352633546492 a86.0,86.0 0 0,1 28.547481713284135,27.462654790039103" fill="none" id="id38" stroke="none" /><text fill="#e1ed5e" style="font-size:6.75px; font-family:Arial;" text-anchor="middle"><textPath startOffset="19.985693538727396" xlink:href="#id38">February</textPath></text><path d="M 111.90073688211348 82.69761687909136 l 1.4553802973454395 -2.115965401196291 a23.568159144009787,23.568159144009787 0 0,0 0.3322760961846731,0.23278063974377997 l -1.4915875331137636 2.0905999186885755" fill="#ff1402" stroke="none" /><path d="M 114.16331599549186 84.49514656593476 l 3.143012328008002 -3.440715825498456 a25.66015577913934,25.66015577913934 0 0,0 0.3235527119481999,0.30070698370745247 l -3.2017729237510486 3.3861042557163628" fill="#ff3204" stroke="none" /><path d="M 114.94478906791727 85.2469230424477 l 1.2832455047276692 -1.2667840008074946 a22.803180725857953,22.803180725857953 0 0,0 0.27335121380642496,0.2817124540775755 l -1.3048609822372033 1.2445073511798048" fill="#ff0901" stroke="none" /><path d="M 115.68641384162765 86.03803664274999 l 3.518300201050661 -3.1315238130793595 a25.71008255730154,25.71008255730154 0 0,0 0.29139089698681003,0.3331101672656992 l -3.571682961615319 3.070498089610713" fill="#ff3304" stroke="none" /><path d="M 117.2510076193507 88.02491185347247 l 3.8449327311926402 -2.669027188988843 a25.68051427120548,25.68051427120548 0 0,0 0.24894878165058926,0.36530161840604947 l -3.8903059785119627 2.602447547312387" fill="#ff3204" stroke="none" /><line stroke="#e1ed5e" stroke-width="0.3" x1="172.23445277983987" x2="176.4835382374775" y1="55.19839476539836" y2="52.563006222186495" /><path d="M 173.08426987136738 54.67131705675599 a86.0,86.0 0 0,1 12.851231095245387,41.99856678651699" fill="none" id="id39" stroke="none" /><text fill="#e1ed5e" style="font-size:6.75px; font-family:Arial;" text-anchor="middle"><textPath startOffset="22.20632615414155" xlink:href="#id39">March</textPath></text><path d="M 119.47837535516314 92.15188598940014 l 1.857462222034452 -0.7483979039886629 a23.00256468783902,23.00256468783902 0 0,0 0.14481368671408326,0.36853503710345376 l -1.8700694586302358 0.7163138619894248" fill="#ff0c01" stroke="none" /><path d="M 120.45610955862082 95.25157060432595 l 4.255841993160804 -0.9878987578628952 a25.368997027526795,25.368997027526795 0 0,0 0.09508011724738014,0.426225522282549 l -4.272216497410221 0.9144950660303823" fill="#ff2e04" stroke="none" /><path d="M 120.53481517161879 95.60439243477599 l 4.0183166486181285 -0.8601461913591243 a25.109345466016606,25.109345466016606 0 0,0 0.08683134985027172,0.4234204993961591 l -4.032527294383397 0.7908500357995534" fill="#ff2a04" stroke="none" /><path d="M 120.73433829027371 96.67025291283417 l 4.246245032370581 -0.6819085243998724 a25.300650661304758,25.300650661304758 0 0,0 0.06535291383461253,0.43059404778134164 l -4.257353839644494 0.6087153642264486" fill="#ff2d04" stroke="none" /><path d="M 120.83666639777658 97.38593545837742 l 3.251742868599007 -0.4079474887684426 a24.277232496646672,24.277232496646672 0 0,0 0.048450011618298185,0.41509011162211223 l -3.258283233220894 0.3519136388214777" fill="#ff1e03" stroke="none" /><line stroke="#e1ed5e" stroke-width="0.3" x1="184.98032266829074" x2="189.97916517819016" y1="98.17113171792111" y2="98.06355123074" /><path d="M 185.9800911702706 98.14961562048488 a86.0,86.0 0 0,1 -9.607161424134198,41.387399972396054" fill="none" id="id40" stroke="none" /><text fill="#e1ed5e" style="font-size:6.75px; font-family:Arial;" text-anchor="middle"><textPath startOffset="21.466115282336823" xlink:href="#id40">April</textPath></text><path d="M 120.92983693683757 101.71520430193887 l 3.5526040506441765 0.29113660890618703 a24.56451344024662,24.56451344024662 0 0,0 -0.03816319848786929,0.42112771522559833 l -3.5470662558792316 -0.3522457126803559" fill="#ff2203" stroke="none" /><path d="M 120.89721153311464 102.0752229133903 l 3.3107934730038178 0.32878235767451847 a24.32707848714194,24.32707848714194 0 0,0 -0.04496767609876775,0.41634483267029415 l -3.3046434954039983 -0.385723512229604" fill="#ff1f03" stroke="none" /><path d="M 120.8583938346157 102.4346265915055 l 3.4091197557788107 0.3979181559642259 a24.43226402948365,24.43226402948365 0 0,0 -0.05235309557187073,0.4173056823780237 l -3.401765150960092 -0.4565415926296445" fill="#ff2003" stroke="none" /><path d="M 120.81339534386255 102.79330883721812 l 3.200149412461388 0.4294832960486998 a24.22884068415613,24.22884068415613 0 0,0 -0.05903293458916316,0.4128762070233594 l -3.1922824268556234 -0.48450497505246853" fill="#ff1d03" stroke="none" /><path d="M 120.5718875245553 104.21870165774334 l 3.2053568193236592 0.6573263688710522 a24.272062085963206,24.272062085963206 0 0,0 -0.08745566237497167,0.40856373912670224 l -3.1935671182242444 -0.7124039274139236" fill="#ff1e03" stroke="none" /><path d="M 120.49622156327973 104.57218783832717 l 3.0511647130217128 0.6806375580269911 a24.126159559489217,24.126159559489217 0 0,0 -0.0939075537458015,0.4045512837478902 l -3.038996593345358 -0.7330574991234462" fill="#ff1c02" stroke="none" /><path d="M 120.41448212921028 104.9243191809786 l 3.180595488781622 0.7672135532613304 a24.27181972296242,24.27181972296242 0 0,0 -0.10146624538790909,0.40530721257181573 l -3.1669179290986524 -0.8218486052305422" fill="#ff1e03" stroke="none" /><path d="M 120.32669344350535 105.2749913415812 l 2.294625539185435 0.5954795296645607 a23.37063329836809,23.37063329836809 0 0,0 -0.10440209842051554,0.38851904675665444 l -2.284035364423142 -0.6348895095967635" fill="#ff1101" stroke="none" /><path d="M 120.23288151984713 105.62410040840565 l 2.6774990628677635 0.7442599591268764 a23.77901495469479,23.77901495469479 0 0,0 -0.1130152752416236,0.39342099932730745 l -2.6642911507400404 -0.7902384339587658" fill="#ff1702" stroke="none" /><path d="M 120.02730092923936 106.31721596034902 l 2.47139372282602 0.7795522684411909 a23.591425992085373,23.591425992085373 0 0,0 -0.125492623471079,0.38622658129387544 l -2.457608848338694 -0.8219777497128616" fill="#ff1402" stroke="none" /><path d="M 119.9155931802556 106.66101706037122 l 2.304070545752082 0.7706249607854502 a23.429527507559417,23.429527507559417 0 0,0 -0.1312155838836562,0.38137390741923416 l -2.2904641309251947 -0.8101715712939846" fill="#ff1202" stroke="none" /><path d="M 119.79798401119884 107.00284435728193 l 2.8667931329772327 1.0140277971438028 a24.040847783212065,24.040847783212065 0 0,0 -0.14135530695680792,0.38894909505650327 l -2.848913565015198 -1.063224689206437" fill="#ff1b02" stroke="none" /><path d="M 119.67450827220406 107.3425965602758 l 2.2805689327171343 0.8511164482061412 a23.434213192241305,23.434213192241305 0 0,0 -0.14429418185629095,0.3767065763575479 l -2.2655804712673366 -0.8902465913968329" fill="#ff1202" stroke="none" /><path d="M 119.54520255179757 107.68017299344265 l 2.2660316173570005 0.8904238666133344 a23.434697918242883,23.434697918242883 0 0,0 -0.15076030592487336,0.37417471554283527 l -2.2503686971747348 -0.9292979499989832" fill="#ff1202" stroke="none" /><path d="M 119.41010516605496 108.01547362559984 l 2.2421548551636117 0.9259060140232761 a23.42581127488068,23.42581127488068 0 0,0 -0.15711916823052813,0.3713833014449803 l -2.225884705740775 -0.9643638411344199" fill="#ff1202" stroke="none" /><path d="M 118.81262510543309 109.33194174019688 l 1.8310309859203404 0.908276988955099 a23.04392797330673,23.04392797330673 0 0,0 -0.179327112511771,0.3538294057532963 l -1.8151252036223005 -0.9396606064110896" fill="#ff0c01" stroke="none" /><line stroke="#e1ed5e" stroke-width="0.3" x1="174.80103733775053" x2="179.2010983576182" y1="140.37084112569926" y2="142.7455964860345" /><path d="M 175.68104954172406 140.8457921977663 a86.0,86.0 0 0,1 -30.038265399797805,32.042727171017184" fill="none" id="id41" stroke="none" /><text fill="#e1ed5e" style="font-size:6.75px; font-family:Arial;" text-anchor="middle"><textPath startOffset="22.206326154141568" xlink:href="#id41">May</textPath></text><path d="M 117.75023020441432 111.22182372390056 l 19.7442636720871 12.482466082680615 a44.35910759121954,44.35910759121954 0 0,0 -0.4135855967283311,0.6418940306539012 l -19.52647321198172 -12.820481713255969" fill="#d9ff1c" stroke="none" /><path d="M 116.498646956653 112.99209946851258 l 3.6335139647028996 2.861263409883049 a25.62485156869132,25.62485156869132 0 0,0 -0.2758723783778183,0.3441932093436444 l -3.5837236742702276 -2.9233844528049437" fill="#ff3104" stroke="none" /><line stroke="#e1ed5e" stroke-width="0.3" x1="143.8653032363475" x2="146.44561519142675" y1="172.8068346515853" y2="177.08958963109032" /><path d="M 144.38136562736335 173.6633856474863 a86.0,86.0 0 0,1 -40.68145358897372,12.25698825130547" fill="none" id="id42" stroke="none" /><text fill="#e1ed5e" style="font-size:6.75px; font-family:Arial;" text-anchor="middle"><textPath startOffset="21.466115282336833" xlink:href="#id42">June</textPath></text><path d="M 109.89434966115114 118.52300852407294 l 5.9683398448716884 11.173206285117324 a33.667344599152116,33.667344599152116 0 0,0 -0.5135217506135179,0.26865030938420814 l -5.775127191731674 -11.274286013446249" fill="#ffa00e" stroke="none" /><path d="M 109.57404056367764 118.69057910512821 l 8.729577042397858 17.042005324716744 a40.147727301871456,40.147727301871456 0 0,0 -0.6177895806199005,0.3097725208241329 l -8.434933554095197 -17.189745686450177" fill="#fff216" stroke="none" /><path d="M 109.2508944713604 118.85261126421891 l 0.5287737075466177 1.0776001375843385 a22.20034315523286,22.20034315523286 0 0,0 -0.344514790492292,0.16538803556564022 l -0.5101462490540929 -1.0865424496495388" fill="#ff0000" stroke="none" /><path d="M 108.59647513512805 119.15986991738527 l 9.441315698591348 21.042855099386408 a44.0638286685936,44.0638286685936 0 0,0 -0.6946963175044903,0.304534450351093 l -9.077698706429103 -21.202254103031954" fill="#ddff1b" stroke="none" /><path d="M 107.93186726928326 119.44442032107085 l 4.045168698576372 9.91644940269728 a31.709778641792617,31.709778641792617 0 0,0 -0.5071736347217103,0.20181485612669628 l -3.8738739878127957 -9.984611103230046" fill="#ff860c" stroke="none" /><path d="M 106.57524785965236 119.94407469862006 l 9.790704620008126 29.6972142284976 a52.26951278625123,52.26951278625123 0 0,0 -0.8569179788001174,0.27435807623393055 l -9.278065296117068 -29.861345151391237" fill="#80ff25" stroke="none" /><path d="M 106.2309692047433 120.05430185196036 l 3.5976959166283153 11.57914242758671 a33.125178566390794,33.125178566390794 0 0,0 -0.5459739656173064,0.16449747714776164 l -3.397846976570763 -11.639355273840197" fill="#ff980e" stroke="none" /><path d="M 105.53697534728816 120.25689768951611 l 2.7718461186985492 10.140735639189531 a31.51273752215249,31.51273752215249 0 0,0 -0.5244763303411918,0.13851896573429606 l -2.59687934554586 -10.18694595422741" fill="#ff830c" stroke="none" /><path d="M 103.7750983002368 120.6578951692458 l 11.32529490071043 61.973685507737414 a84.0,84.0 0 0,0 -1.4246041141118002,0.24768568591597528 l -10.256841815126581 -62.15944977217439" fill="#4dd2ff" stroke="none" /><path d="M 102.70371172650421 120.8252237178851 l 1.3346175002613458 10.279834106679433 a31.366107906676138,31.366107906676138 0 0,0 -0.536020760634159,0.06490464928705722 l -1.1574693165758063 -10.30128428469184" fill="#ff810b" stroke="none" /><path d="M 101.26447882468166 120.96189622390904 l 1.1507583943637194 19.076695924518383 a40.111372851753345,40.111372851753345 0 0,0 -0.6895563900856472,0.035642188973670774 l -0.8222139358645927 -19.093677920254255" fill="#fff216" stroke="none" /><line stroke="#e1ed5e" stroke-width="0.3" x1="102.19456741930631" x2="102.32365962044197" y1="184.97166512339345" y2="189.96999836594603" /><path d="M 102.22038585953345 185.97133177190398 a86.0,86.0 0 0,1 -42.740103519485714,-10.115201625700543" fill="none" id="id43" stroke="none" /><text fill="#e1ed5e" style="font-size:6.75px; font-family:Arial;" text-anchor="middle"><textPath startOffset="22.20632615414155" xlink:href="#id43">July</textPath></text><path d="M 98.01472825383883 120.90594882070398 l -1.3749082825023156 14.478502624507618 a35.54363816358092,35.54363816358092 0 0,0 -0.6085873181747204,-0.06308256389221836 l 1.6239281972826292 -14.45269069215964" fill="#ffb811" stroke="none" /><path d="M 96.58105272829116 120.7198165907248 l -0.7738712191712982 4.689885058699838 a25.753303959108617,25.753303959108617 0 0,0 -0.43676503300140296,-0.0759371994727907 l 0.8544852236447511 -4.675869280706041" fill="#ff3304" stroke="none" /><path d="M 94.81253420990036 120.34920634021253 l -4.82686127648562 18.934639776949908 a40.54019378781311,40.54019378781311 0 0,0 -0.6747231037673797,-0.17820050416782618 l 5.152074823064489 -18.8487479234785" fill="#fff717" stroke="none" /><path d="M 94.11515582081647 120.15858648285463 l -5.889424840432854 20.174277579021574 a42.01634603794199,42.01634603794199 0 0,0 -0.6925194688719118,-0.2086504351472805 l 6.235819283745012 -20.069911774768567" fill="#f5ff19" stroke="none" /><path d="M 93.08242187328487 119.8279376855182 l -5.830959984841763 16.71335098908291 a38.70130491317249,38.70130491317249 0 0,0 -0.6271093828598693,-0.22485911321040658 l 6.1177889283313585 -16.610504334832548" fill="#ffe015" stroke="none" /><path d="M 91.7346041902142 119.30500536409082 l -3.5380153200214113 8.26353707712141 a29.98908212386929,29.98908212386929 0 0,0 -0.4727983370097227,-0.20726089668272035 l 3.6797343316888775 -8.201411627144235" fill="#ff6e0a" stroke="none" /><path d="M 91.40352486487194 119.15986991738527 l -13.3135888849293 29.673398359104553 a53.52325658932423,53.52325658932423 0 0,0 -0.8373382266831124,-0.38438091102366884 l 13.822395107379831 -29.43983037774681" fill="#73ff27" stroke="none" /><line stroke="#e1ed5e" stroke-width="0.3" x1="58.666819895761336" x2="56.23545636021788" y1="174.27360380694188" y2="178.64263932499728" /><path d="M 58.180547188652646 175.14741091055294 a86.0,86.0 0 0,1 -31.652253787137756,-30.449443065178592" fill="none" id="id44" stroke="none" /><text fill="#e1ed5e" style="font-size:6.75px; font-family:Arial;" text-anchor="middle"><textPath startOffset="22.20632615414155" xlink:href="#id44">August</textPath></text><path d="M 89.1626897886671 117.98757091392108 l -10.753482549129528 17.84843528072174 a41.83756293102785,41.83756293102785 0 0,0 -0.6136590288998848,-0.3769594964925711 l 11.059120777961722 -17.66068731740079" fill="#f7ff18" stroke="none" /><path d="M 87.07902340077011 116.55440617244103 l -10.668502005276762 13.668526840098103 a38.33913380232924,38.33913380232924 0 0,0 -0.5167430742121885,-0.4105319504077795 l 10.902202572206308 -13.482860975685194" fill="#ffdc14" stroke="none" /><path d="M 85.44109423537348 115.13401014063109 l -3.0163976991918378 3.1355511262845672 a25.35090059013467,25.35090059013467 0 0,0 -0.31187649403703804,-0.30523679071598664 l 3.06992414560467 -3.083164232646011" fill="#ff2e04" stroke="none" /><path d="M 85.18274418774928 114.88116024355367 l -2.8770848447917503 2.889493247072603 a25.07759591291346,25.07759591291346 0 0,0 -0.3032709801501627,-0.3072119017480295 l 2.926396449997446 -2.8395408513439087" fill="#ff2a04" stroke="none" /><path d="M 84.67929136418377 114.36230785411682 l -2.97230651291274 2.786371191437706 a25.07412204323551,25.07412204323551 0 0,0 -0.2924760124211433,-0.31742494676914845 l 3.019828933329612 -2.734794989867214" fill="#ff2a04" stroke="none" /><path d="M 84.43433777217949 114.09645910891817 l -2.287896174017935 2.0719474950992782 a24.086654390360877,24.086654390360877 0 0,0 -0.2756673440143922,-0.30971518332962167 l 2.3232223676806654 -2.0322581420287924" fill="#ff1b02" stroke="none" /><path d="M 83.72743513129214 113.27417163493432 l -3.084605312522771 2.5162339603387207 a24.980731500265446,24.980731500265446 0 0,0 -0.2689379017131866,-0.3355413834799851 l 3.1274611262908185 -2.4627647432804762" fill="#ff2803" stroke="none" /><path d="M 83.28015986056508 112.70617746262583 l -3.0259526899199156 2.299560973729016 a24.800575003013506,24.800575003013506 0 0,0 -0.25537356780405607,-0.3421146266255437 l 3.0650875244190567 -2.247133467594164" fill="#ff2603" stroke="none" /><path d="M 83.06392112726016 112.41649034213515 l -2.7894225019758783 2.0450328447434116 a24.458762384236405,24.458762384236405 0 0,0 -0.24600880328733787,-0.3416847112281313 l 2.8242110976388233 -1.9967145280641423" fill="#ff2103" stroke="none" /><path d="M 82.6465618267979 111.8261652097733 l -2.6493399541312965 1.805494201304349 a24.206058562082116,24.206058562082116 0 0,0 -0.2316829810106908,-0.346334621451324 l 2.6800260405527174 -1.759622665647204" fill="#ff1d02" stroke="none" /><path d="M 82.44556493220864 111.52570212397912 l -4.841875444866024 3.1790264900820855 a26.792233355817096,26.792233355817096 0 0,0 -0.24979947573029918,-0.3876943336522336 l 4.895879783973369 -3.0952105565084036" fill="#ff4206" stroke="none" /><path d="M 82.24976979558568 111.22182372390057 l -2.90596622015943 1.837172830701028 a24.437999953835618,24.437999953835618 0 0,0 -0.22172872033326413,-0.35749729713875267 l 2.93715958016065 -1.786879202197011" fill="#ff2003" stroke="none" /><path d="M 82.05923443525364 110.91462005526583 l -7.072069591614374 4.302433601191819 a29.277989079559184,29.277989079559184 0 0,0 -0.2582306427920325,-0.43280941071826945 l 7.1450811101046385 -4.180062096587438" fill="#ff6509" stroke="none" /><line stroke="#e1ed5e" stroke-width="0.3" x1="26.63291911575756" x2="22.317208475507996" y1="142.92168965132927" y2="145.44649492493687" /><path d="M 25.769776987707644 143.4266507060508 a86.0,86.0 0 0,1 -11.730757126820373,-40.83630448921669" fill="none" id="id45" stroke="none" /><text fill="#e1ed5e" style="font-size:6.75px; font-family:Arial;" text-anchor="middle"><textPath startOffset="21.46611528233685" xlink:href="#id45">September</textPath></text><path d="M 81.87401531095188 110.60418214915194 l -4.5141214719393155 2.640880876433982 a26.229870406323496,26.229870406323496 0 0,0 -0.22463761113138644,-0.39167460976816926 l 4.558911079223079 -2.5627864208075057" fill="#ff3a05" stroke="none" /><path d="M 81.69416730710424 110.29060199501025 l -3.152420531857727 1.7721294386589708 a24.616379122415115,24.616379122415115 0 0,0 -0.20446082061116047,-0.3711557790691887 l 3.182457761920404 -1.7176031411919597" fill="#ff2303" stroke="none" /><path d="M 81.51974371655577 109.97397251340807 l -4.339799150230258 2.3422314482124205 a25.931521552354255,25.931521552354255 0 0,0 -0.20862216781821713,-0.39463452019537754 l 4.379473826273361 -2.267181912930917" fill="#ff3605" stroke="none" /><path d="M 81.35079622478065 109.6543875284942 l -4.355152583426407 2.254591203619718 a25.904134533265285,25.904134533265285 0 0,0 -0.20158514873627228,-0.3977466228446869 l 4.393316401948947 -2.179290369072346" fill="#ff3505" stroke="none" /><path d="M 81.02952815118164 109.00673069616217 l -5.097653536217096 2.420245155151793 a26.643018534999012,26.643018534999012 0 0,0 -0.1931306526206583,-0.4159862440354494 l 5.138558805677581 -2.3321388438375164" fill="#ff4006" stroke="none" /><path d="M 80.73074385275274 108.34839909993369 l -3.167476857215087 1.3723083414204773 a24.451976220214355,24.451976220214355 0 0,0 -0.16400175516791637,-0.38765170388165093 l 3.19062959357531 -1.3175821118726674" fill="#ff2103" stroke="none" /><path d="M 80.58989483394504 108.01547362559985 l -3.2524574225317666 1.3431141390352643 a24.51886840843167,24.51886840843167 0 0,0 -0.15773500111172578,-0.39148533700600985 l 3.27509503790088 -1.286929434186449" fill="#ff2203" stroke="none" /><line stroke="#e1ed5e" stroke-width="0.3" x1="15.007084014347285" x2="10.007500721073583" y1="101.09737516637583" y2="101.16192664675087" /><path d="M 14.007167355692545 101.11028546245083 a86.0,86.0 0 0,1 10.666146001902534,-42.60595125391555" fill="none" id="id46" stroke="none" /><text fill="#e1ed5e" style="font-size:6.75px; font-family:Arial;" text-anchor="middle"><textPath startOffset="22.20632615414155" xlink:href="#id46">October</textPath></text><line stroke="#e1ed5e" stroke-width="0.3" x1="26.266209847984243" x2="21.928928074336255" y1="57.711370442889674" y2="55.22380399835377" /><path d="M 25.398753493254645 57.213857153982495 a86.0,86.0 0 0,1 29.58750427330803,-30.492523968695096" fill="none" id="id47" stroke="none" /><text fill="#e1ed5e" style="font-size:6.75px; font-family:Arial;" text-anchor="middle"><textPath startOffset="21.46611528233685" xlink:href="#id47">November</textPath></text><line stroke="#e1ed5e" stroke-width="0.3" x1="56.762969772571076" x2="54.21961505331055" y1="26.818313649435495" y2="22.513508569990535" /><path d="M 56.25429882871897 25.957352633546506 a86.0,86.0 0 0,1 42.265352541879196,-11.944610805530505" fill="none" id="id48" stroke="none" /><text fill="#e1ed5e" style="font-size:6.75px; font-family:Arial;" text-anchor="middle"><textPath startOffset="22.20632615414155" xlink:href="#id48">December</textPath></text></svg>