<?xml version="1.0" encoding="utf-8" ?>
<svg baseProfile="full" height="200mm" version="1.1" viewBox="0,0,200,200" width="200mm" xmlns="http://www.w3.org/2000/svg" xmlns:ev="http://www.w3.org/2001/xml-events" xmlns:xlink="http://www.w3.org/1999/xlink"><defs /><rect fill="#1a1a1a" height="200" width="200" x="0" y="0" /><text alignment-baseline="middle" fill="#e1ed5e" style="dominant-baseline: central; font-size:9.0px; font-family:Arial;" text-anchor="middle" x="100.0" y="100.0">2025</text><line stroke="#e1ed5e" stroke-width="0.3" x1="100.0" x2="100.0" y1="15.0" y2="10.0" /><path d="M 100.0 14.0 a86.0,86.0 0 0,1 42.46469731375804,11.215312516191453" fill="none" id="id37" stroke="none" /><text fill="#e1ed5e" style="font-size:6.75px; font-family:Arial;" text-anchor="middle"><textPath startOffset="22.20632615414155" xlink:href="#id37">January</textPath></text><path d="M 100.36148047927253 79.00311137660856 l 0.16605437721626382 -9.645404008684723 a30.646833291134662,30.646833291134662 0 0,0 0.5273785365256798,0.013620631680219625 l -0.33205954893681144 9.641116584862145" fill="#ff6909" stroke="none" /><path d="M 101.80526077348638 79.07773832637324 l 0.8043680230255772 -9.322308725036933 a30.356946504141497,30.356946504141497 0 0,0 0.5202239173860084,0.049401529379090474 l -0.9647170675018298 9.307081651142664" fill="#ff6509" stroke="none" /><path d="M 102.16513564639614 79.11191278185805 l 0.5753698988704878 -5.550865438987551 a26.58060549064998,26.58060549064998 0 0,0 0.45469707300541373,0.051090514133533285 l -0.6708336753856269 5.540138971383417" fill="#ff2f04" stroke="none" /><path d="M 102.52436894288641 79.15227682838746 l 1.141098138661995 -9.423859445547816 a30.49269360147575,30.49269360147575 0 0,0 0.5205324544881952,0.06758005197404195 l -1.3031453216580362 9.402821070409637" fill="#ff6609" stroke="none" /><path d="M 103.2404852339499 79.25152402106235 l 0.7122975980459205 -4.560764371975299 a25.61605237457952,25.61605237457952 0 0,0 0.4350713207633062,0.07179049576087172 l -0.7906981249481019 4.547827613274803" fill="#ff2103" stroke="none" /><path d="M 104.307194497241 79.44645832069477 l 1.942587472161459 -9.26985131512919 a30.471208449379677,30.471208449379677 0 0,0 0.5124347127491871,0.11199838042853191 l -2.101864909064174 9.235039436604787" fill="#ff6609" stroke="none" /><path d="M 105.01212808612495 79.60689891045804 l 2.3589989037962122 -9.598179114458391 a30.88382102940644,30.88382102940644 0 0,0 0.5151584757163608,0.13132536594204317 l -2.523866268197598 9.556150752347481" fill="#ff6c09" stroke="none" /><path d="M 106.40334571778207 80.00007090966166 l 0.8083384792887622 -2.524728943163613 a23.650974789308062,23.650974789308062 0 0,0 0.38665647218480853,0.1274745597162131 l -0.8516777737159882 2.510440659188164" fill="#ff0300" stroke="none" /><line stroke="#e1ed5e" stroke-width="0.3" x1="143.23703022742887" x2="145.7803849466894" y1="26.81831364943548" y2="22.513508569990506" /><path d="M 143.74570117128098 25.957352633546492 a86.0,86.0 0 0,1 28.547481713284135,27.462654790039103" fill="none" id="id38" stroke="none" /><text fill="#e1ed5e" style="font-size:6.75px; font-family:Arial;" text-anchor="middle"><textPath startOffset="19.985693538727396" xlink:href="#id38">February</textPath></text><path d="M 111.90073688211348 82.69761687909136 l 2.932215777058 -4.263124314939089 a26.174178030166022,26.174178030166022 0 0,0 0.3690170981774235,0.2585200596024585 l -3.0051640148190746 4.212019412572696" fill="#ff2904" stroke="none" /><path d="M 114.16331599549186 84.49514656593476 l 6.332358870380809 -6.932154603371733 a30.389011465981838,30.389011465981838 0 0,0 0.38317955502190454,0.35612363597634744 l -6.4507463091975605 6.822126381320745" fill="#ff6509" stroke="none" /><path d="M 114.94478906791727 85.2469230424477 l 2.5854085847282313 -2.5522429017813906 a24.632943899880637,24.632943899880637 0 0,0 0.29528534618078384,0.3043175055540208 l -2.6289581946121245 2.5073612006772557" fill="#ff1202" stroke="none" /><path d="M 115.68641384162765 86.03803664274999 l 7.088467101529298 -6.309212477104649 a30.489601041704343,30.489601041704343 0 0,0 0.3455606249614738,0.39503553052505475 l -7.19601959006862 6.186261390376647" fill="#ff6609" stroke="none" /><path d="M 117.2510076193507 88.02491185347247 l 7.746547370947265 -5.377401114488416 a30.430028574528883,30.430028574528883 0 0,0 0.29499092032263946,0.4328627756057754 l -7.837962756938638 5.243260315612234" fill="#ff6609" stroke="none" /><line stroke="#e1ed5e" stroke-width="0.3" x1="172.23445277983987" x2="176.4835382374775" y1="55.19839476539836" y2="52.563006222186495" /><path d="M 173.08426987136738 54.67131705675599 a86.0,86.0 0 0,1 12.851231095245387,41.99856678651699" fill="none" id="id39" stroke="none" /><text fill="#e1ed5e" style="font-size:6.75px; font-family:Arial;" text-anchor="middle"><textPath startOffset="22.20632615414155" xlink:href="#id39">March</textPath></text><path d="M 119.47837535516314 92.15188598940014 l 3.7423071087830544 -1.5078286724063255 a25.034651137555613,25.034651137555613 0 0,0 0.1576067788974418,0.40109206130083186 l -3.767707437562197 1.443187606209709" fill="#ff1802" stroke="none" /><path d="M 120.45610955862082 95.25157060432595 l 8.57442350963071 -1.9903610961513738 a29.802401707237674,29.802401707237674 0 0,0 0.11169601405617442,0.5007113296264227 l -8.607413910688923 1.8424715969749872" fill="#ff5d08" stroke="none" /><path d="M 120.53481517161879 95.60439243477599 l 8.09587122746122 -1.73297263779086 a29.279270806959165,29.279270806959165 0 0,0 0.10125148862365958,0.49373821726324696 l -8.124502011999876 1.5933587643642013" fill="#ff5507" stroke="none" /><path d="M 120.73433829027371 96.67025291283417 l 8.555088109878342 -1.3738697283470622 a29.664701414258325,29.664701414258325 0 0,0 0.07662548688601808,0.5048662198133229 l -8.57746949020366 1.226404396141657" fill="#ff5b08" stroke="none" /><path d="M 120.83666639777658 97.38593545837742 l 6.551422854653861 -0.8219089298926372 a27.602777878250805,27.602777878250805 0 0,0 0.05508679414275411,0.4719500112768661 l -6.564600001800204 0.7090151802909184" fill="#ff3d05" stroke="none" /><line stroke="#e1ed5e" stroke-width="0.3" x1="184.98032266829074" x2="189.97916517819016" y1="98.17113171792111" y2="98.06355123074" /><path d="M 185.9800911702706 98.14961562048488 a86.0,86.0 0 0,1 -9.607161424134198,41.387399972396054" fill="none" id="id40" stroke="none" /><text fill="#e1ed5e" style="font-size:6.75px; font-family:Arial;" text-anchor="middle"><textPath startOffset="21.466115282336823" xlink:href="#id40">April</textPath></text><path d="M 120.92983693683757 101.71520430193887 l 7.157580507266204 0.5865651469041864 a28.181574854414585,28.181574854414585 0 0,0 -0.04378263129395703,0.48313768798099327 l -7.146423279695172 -0.7096842234337503" fill="#ff4606" stroke="none" /><path d="M 120.89721153311464 102.0752229133903 l 6.6703945860950595 0.6624116171903388 a27.703204687669547,27.703204687669547 0 0,0 -0.051208316524790604,0.4741254123965202 l -6.658003968069217 -0.7771333514716504" fill="#ff3f05" stroke="none" /><path d="M 120.8583938346157 102.4346265915055 l 6.86849667541026 0.8017024120941425 a27.915126415162586,27.915126415162586 0 0,0 -0.059816121803131395,0.47679334437818 l -6.85367904436028 -0.9198135107597174" fill="#ff4206" stroke="none" /><path d="M 120.81339534386255 102.79330883721812 l 6.447475352852707 0.8652980248213162 a27.505280862299706,27.505280862299706 0 0,0 -0.06701589511307039,0.46870901433450196 l -6.431625406723035 -0.9761525111362275" fill="#ff3c05" stroke="none" /><path d="M 120.5718875245553 104.21870165774334 l 6.457966934047649 1.3243430277264951 a27.592360834810286,27.592360834810286 0 0,0 -0.09941916697275945,0.4644532497518083 l -6.434213728350446 -1.4353100968944723" fill="#ff3d05" stroke="none" /><path d="M 120.49622156327973 104.57218783832717 l 6.147309625012316 1.3713090590447012 a27.298404890223168,27.298404890223168 0 0,0 -0.10625505555835575,0.4577439983922279 l -6.122794003523406 -1.4769217147854938" fill="#ff3905" stroke="none" /><path d="M 120.41448212921028 104.9243191809786 l 6.408079242006787 1.5457373508139798 a27.591872535899014,27.591872535899014 0 0,0 -0.11534543933641812,0.4607476932016838 l -6.380522488375308 -1.6558128834130597" fill="#ff3d05" stroke="none" /><path d="M 120.32669344350535 105.2749913415812 l 4.623078394500728 1.1997376046537642 a25.776214417477483,25.776214417477483 0 0,0 -0.11514839329192281,0.42851000769297826 l -4.601741924867027 -1.2791385455222908" fill="#ff2303" stroke="none" /><path d="M 120.23288151984713 105.62410040840565 l 5.394469754413199 1.4994917811962 a26.598998082974646,26.598998082974646 0 0,0 -0.1264178981015903,0.4400772877617855 l -5.36785921942551 -1.5921265444625676" fill="#ff2f04" stroke="none" /><path d="M 120.02730092923936 106.31721596034902 l 4.979220674218417 1.57059667822483 a26.22105472564835,26.22105472564835 0 0,0 -0.1394807142562846,0.42927749802001586 l -4.951447708945885 -1.6560730762226412" fill="#ff2904" stroke="none" /><path d="M 119.9155931802556 106.66101706037122 l 4.642107645700333 1.5526104567522987 a25.894871052917132,25.894871052917132 0 0,0 -0.14502258416027478,0.42150351313665646 l -4.614694230596828 -1.6322866729782555" fill="#ff2503" stroke="none" /><path d="M 119.79798401119884 107.00284435728193 l 5.775848463394562 2.043004368400278 a27.126523673454624,27.126523673454624 0 0,0 -0.15949845509233435,0.4388712465534069 l -5.739825747297001 -2.142123411959816" fill="#ff3705" stroke="none" /><path d="M 119.67450827220406 107.3425965602758 l 4.594757959399731 1.7147800352221356 a25.9043114985351,25.9043114985351 0 0,0 -0.15950360285487084,0.41641357520565037 l -4.564560076951353 -1.79361717726093" fill="#ff2503" stroke="none" /><path d="M 119.54520255179757 107.68017299344265 l 4.5654690199158 1.793974341081035 a25.90528809635765,25.90528809635765 0 0,0 -0.16665412851080996,0.41362187975822656 l -4.533912277147598 -1.872295588682075" fill="#ff2503" stroke="none" /><path d="M 119.41010516605496 108.01547362559984 l 4.517363504858177 1.8654617128896922 a25.88738380294426,25.88738380294426 0 0,0 -0.17362917181632445,0.41040807294558546 l -4.484583351849544 -1.9429443115014413" fill="#ff2503" stroke="none" /><path d="M 118.81262510543309 109.33194174019688 l 3.6890549878890795 1.8299437760773398 a25.117987485079755,25.117987485079755 0 0,0 -0.19546737748112286,0.3856756797651619 l -3.6570089406216875 -1.893173667545196" fill="#ff1902" stroke="none" /><line stroke="#e1ed5e" stroke-width="0.3" x1="174.80103733775053" x2="179.2010983576182" y1="140.37084112569926" y2="142.7455964860345" /><path d="M 175.68104954172406 140.8457921977663 a86.0,86.0 0 0,1 -30.038265399797805,32.042727171017184" fill="none" id="id41" stroke="none" /><text fill="#e1ed5e" style="font-size:6.75px; font-family:Arial;" text-anchor="middle"><textPath startOffset="22.206326154141568" xlink:href="#id41">May</textPath></text><path d="M 117.75023020441432 111.22182372390056 l 39.779596818291594 25.14894838894471 a68.06257460122256,68.06257460122256 0 0,0 -0.6345867187121941,0.9848926797641079 l -39.34080523620235 -25.82996266863027" fill="#39ff87" stroke="none" /><path d="M 116.498646956653 112.99209946851258 l 7.3205931074478325 5.764707498157428 a30.317882591239556,30.317882591239556 0 0,0 -0.3263966761096778,0.4072300392300568 l -7.2202785192833 -5.889865370965735" fill="#ff6409" stroke="none" /><line stroke="#e1ed5e" stroke-width="0.3" x1="143.8653032363475" x2="146.44561519142675" y1="172.8068346515853" y2="177.08958963109032" /><path d="M 144.38136562736335 173.6633856474863 a86.0,86.0 0 0,1 -40.68145358897372,12.25698825130547" fill="none" id="id42" stroke="none" /><text fill="#e1ed5e" style="font-size:6.75px; font-family:Arial;" text-anchor="middle"><textPath startOffset="21.466115282336833" xlink:href="#id42">June</textPath></text><path d="M 109.89434966115114 118.52300852407294 l 12.024664816403558 22.511127716447557 a46.52143089666148,46.52143089666148 0 0,0 -0.7095827401755067,0.3712201527084176 l -11.635391173701555 -22.71477728810069" fill="#c9ff1d" stroke="none" /><path d="M 109.57404056367764 118.69057910512821 l 17.58784530575981 34.335243494079066 a59.57772995261691,59.57772995261691 0 0,0 -0.9167766963485672,0.45969086752119337 l -16.99421470172848 -34.63290220250956" fill="#3aff2e" stroke="none" /><path d="M 109.2508944713604 118.85261126421891 l 1.065342584745485 2.1710862312400026 a23.418381741237745,23.418381741237745 0 0,0 -0.3634168545430492,0.17446217498654437 l -1.027813062202203 -2.189102682726107" fill="#ff0000" stroke="none" /><path d="M 108.59647513512805 119.15986991738527 l 19.02181505280062 42.3959234773954 a67.46766376098672,67.46766376098672 0 0,0 -1.0636737428764285,0.4662833103871595 l -18.28922063526644 -42.717071341077016" fill="#38ff81" stroke="none" /><path d="M 107.93186726928326 119.44442032107085 l 8.149971179671324 19.979086870986254 a42.57744059029913,42.57744059029913 0 0,0 -0.6809935681124304,0.2709813948574575 l -7.804856535517028 -20.116415110249783" fill="#f8ff18" stroke="none" /><path d="M 106.57524785965236 119.94407469862006 l 19.725743578957097 59.83222409586019 a84.0,84.0 0 0,0 -1.3771146196362385,0.4409086133611737 l -18.692907614229917 -60.16290555588107" fill="#4dd2ff" stroke="none" /><line stroke="#e1ed5e" stroke-width="0.3" x1="102.19456741930631" x2="102.32365962044197" y1="184.97166512339345" y2="189.96999836594603" /><path d="M 102.22038585953345 185.97133177190398 a86.0,86.0 0 0,1 -42.740103519485714,-10.115201625700543" fill="none" id="id43" stroke="none" /><text fill="#e1ed5e" style="font-size:6.75px; font-family:Arial;" text-anchor="middle"><textPath startOffset="22.20632615414155" xlink:href="#id43">July</textPath></text><line stroke="#e1ed5e" stroke-width="0.3" x1="58.666819895761336" x2="56.23545636021788" y1="174.27360380694188" y2="178.64263932499728" /><path d="M 58.180547188652646 175.14741091055294 a86.0,86.0 0 0,1 -31.652253787137756,-30.449443065178592" fill="none" id="id44" stroke="none" /><text fill="#e1ed5e" style="font-size:6.75px; font-family:Arial;" text-anchor="middle"><textPath startOffset="22.20632615414155" xlink:href="#id44">August</textPath></text><line stroke="#e1ed5e" stroke-width="0.3" x1="26.63291911575756" x2="22.317208475507996" y1="142.92168965132927" y2="145.44649492493687" /><path d="M 25.769776987707644 143.4266507060508 a86.0,86.0 0 0,1 -11.730757126820373,-40.83630448921669" fill="none" id="id45" stroke="none" /><text fill="#e1ed5e" style="font-size:6.75px; font-family:Arial;" text-anchor="middle"><textPath startOffset="21.46611528233685" xlink:href="#id45">September</textPath></text><line stroke="#e1ed5e" stroke-width="0.3" x1="15.007084014347285" x2="10.007500721073583" y1="101.09737516637583" y2="101.16192664675087" /><path d="M 14.007167355692545 101.11028546245083 a86.0,86.0 0 0,1 10.666146001902534,-42.60595125391555" fill="none" id="id46" stroke="none" /><text fill="#e1ed5e" style="font-size:6.75px; font-family:Arial;" text-anchor="middle"><textPath startOffset="22.20632615414155" xlink:href="#id46">October</textPath></text><line stroke="#e1ed5e" stroke-width="0.3" x1="26.266209847984243" x2="21.928928074336255" y1="57.711370442889674" y2="55.22380399835377" /><path d="M 25.398753493254645 57.213857153982495 a86.0,86.0 0 0,1 29.58750427330803,-30.492523968695096" fill="none" id="id47" stroke="none" /><text fill="#e1ed5e" style="font-size:6.75px; font-family:Arial;" text-anchor="middle"><textPath startOffset="21.46611528233685" xlink:href="#id47">November</textPath></text><line stroke="#e1ed5e" stroke-width="0.3" x1="56.762969772571076" x2="54.21961505331055" y1="26.818313649435495" y2="22.513508569990535" /><path d="M 56.25429882871897 25.957352633546506 a86.0,86.0 0 0,1 42.265352541879196,-11.944610805530505" fill="none" id="id48" stroke="none" /><text fill="#e1ed5e" style="font-size:6.75px; font-family:Arial;" text-anchor="middle"><textPath startOffset="22.20632615414155" xlink:href="#id48">December</textPath></text></svg>